HIERARCHY
ROOT Hips
{
  OFFSET 0 0 0
  CHANNELS 6 Xposition Yposition Zposition Zrotation Yrotation Xrotation
  JOINT LeftThigh
  {
    OFFSET 8.409438 0 -5.917753
    CHANNELS 3 Zrotation Yrotation Xrotation
    JOINT LeftLeg
    {
      OFFSET 0 0 -42.358652
      CHANNELS 3 Zrotation Yrotation Xrotation
      JOINT LeftFoot
      {
        OFFSET 0 0 -39.357303
        CHANNELS 3 Zrotation Yrotation Xrotation
      }
    }
  }
  JOINT RightThigh
  {
    OFFSET -8.409438 0 -5.917753
    CHANNELS 3 Zrotation Yrotation Xrotation
    JOINT RightLeg
    {
      OFFSET 0 0 -42.358652
      CHANNELS 3 Zrotation Yrotation Xrotation
      JOINT RightFoot
      {
        OFFSET 0 0 -39.357303
        CHANNELS 3 Zrotation Yrotation Xrotation
      }
    }
  }
  JOINT SpineLow
  {
    OFFSET 0 0 4.719101
    CHANNELS 3 Zrotation Yrotation Xrotation
    JOINT SpineMid
    {
      OFFSET 0 0 12.899191
      CHANNELS 3 Zrotation Yrotation Xrotation
      JOINT Chest
      {
        OFFSET 0 0 12.899191
        CHANNELS 3 Zrotation Yrotation Xrotation
        JOINT LeftShoulder
        {
          OFFSET 7.550562 1.41573 9.438202
          CHANNELS 3 Zrotation Yrotation Xrotation
          JOINT LeftArm
          {
            OFFSET 9.155056 0 4.247191
            CHANNELS 3 Zrotation Yrotation Xrotation
            JOINT LeftForearm
            {
              OFFSET 0 0 25.771955
              CHANNELS 3 Zrotation Yrotation Xrotation
              JOINT LeftHand
              {
                OFFSET 0 0 25.197169
                CHANNELS 3 Zrotation Yrotation Xrotation
              }
            }
          }
        }
        JOINT RightShoulder
        {
          OFFSET -7.550562 1.41573 9.438202
          CHANNELS 3 Zrotation Yrotation Xrotation
          JOINT RightArm
          {
            OFFSET -9.155056 0 4.247191
            CHANNELS 3 Zrotation Yrotation Xrotation
            JOINT RightForearm
            {
              OFFSET 0 0 -25.771955
              CHANNELS 3 Zrotation Yrotation Xrotation
              JOINT RightHand
              {
                OFFSET 0 0 -25.197169
                CHANNELS 3 Zrotation Yrotation Xrotation
              }
            }
          }
        }
        JOINT Neck
        {
          OFFSET 0 0 15.101124
          CHANNELS 3 Zrotation Yrotation Xrotation
          JOINT Head
          {
            OFFSET 0 0 11.325843
            CHANNELS 3 Zrotation Yrotation Xrotation
            End Site
            {
              OFFSET 0 0 14.157303
            }
          }
        }
      }
    }
  }
}
MOTION
Frames: 8
Frame Time: 0.0
0.0  93.25843  0.0  -1.810051  -30.138424  -87.773742  20.66575  -11.850612  1.39974  4.201544  -2.247877  10.007245  9.339334  2.284611  2.040672  5.23834  3.428885  -12.591024  2.193462  4.665545  5.885875  0.426219  0.824482  -0.470265  1.784558  -0.816464  -0.263411  4.88842  -2.210857  -0.780066  4.88842  -2.210857  -0.780066  -22.463463  30.372003  -3.280814  139.12162  43.235137  -152.292332  -12.42255  12.823764  100.72744  77.640611  -20.073778  11.266579  -5.528605  -4.7791  28.208226  86.716265  35.413614  39.649727  -3.463847  -14.648145  -108.344485  66.282168  20.408635  -15.995304  -0.154746  7.508193  8.088126  -0.215821  5.630264  6.059288  
0.0  93.25843  0.0  -1.744213  -31.098858  -87.935349  20.808553  -11.854866  1.671792  4.563389  -2.126595  10.155271  9.384458  2.278332  2.035279  5.589239  3.301981  -12.60643  2.512867  4.917248  6.072359  0.461912  0.764263  -0.47046  1.845785  -0.806138  -0.226598  5.054472  -2.184705  -0.680716  5.054472  -2.184705  -0.680715  -22.9888  30.216517  -3.596912  139.155442  43.467904  -152.05414  -12.781919  13.523907  100.772519  78.022543  -20.020502  11.265891  -5.507279  -4.709074  28.544002  87.035928  35.527847  39.492345  -3.400377  -14.581873  -108.703122  64.967909  20.394555  -16.5735  0.217503  7.619561  8.169508  0.060497  5.718777  6.115338  
0.0  93.25843  0.0  -1.684294  -31.968822  -88.074797  20.273638  -11.913629  1.679945  4.911993  -1.954657  10.35053  9.676865  2.276912  2.224172  5.477011  3.090177  -12.721442  2.63473  5.195825  6.1963  1.085925  0.709253  -0.326319  1.878608  -0.816128  -0.208996  5.143773  -2.213004  -0.634479  5.143773  -2.213004  -0.634479  -23.071292  30.334905  -3.828079  138.840834  43.705017  -151.932411  -13.118514  13.779432  100.893672  78.133585  -19.863809  11.30217  -5.505987  -4.647386  28.940921  87.491474  35.649221  39.43739  -3.116784  -14.717703  -109.044407  63.704101  20.464946  -17.180182  0.784664  7.794945  8.338041  0.480747  5.858187  6.233793  
0.0  93.25843  0.0  -1.615098  -32.754406  -88.223537  20.097828  -11.978171  1.878316  5.256568  -1.735379  10.622715  9.760343  2.230221  2.241555  5.250798  2.842006  -12.800745  3.298786  5.529883  6.489046  1.079452  0.667377  -0.324275  1.931478  -0.819262  -0.18631  5.287617  -2.222833  -0.574507  5.287617  -2.222833  -0.574507  -23.652076  30.284108  -4.163334  138.742724  43.961239  -151.707549  -13.498164  13.851963  100.949263  78.259248  -19.845938  11.350174  -5.468633  -4.668685  29.389106  87.791988  35.87753  39.250812  -2.778656  -15.189347  -109.508174  62.556961  20.485877  -17.887038  1.110563  7.916707  8.406904  0.722221  5.954124  6.280661  
0.0  93.25843  0.0  -1.726312  -33.027568  -88.170922  18.975536  -12.282931  1.679526  5.804654  -1.424928  11.088992  9.897766  2.192616  2.317795  4.193434  2.352696  -13.122869  3.211175  5.903283  6.636636  1.704796  0.685657  -0.188195  1.908793  -0.85209  -0.184377  5.225926  -2.312867  -0.571075  5.225926  -2.312867  -0.571075  -23.929617  30.368169  -4.473738  139.520564  44.11807  -151.061862  -12.950781  13.980302  101.182214  78.289707  -19.910619  11.46811  -5.448205  -4.644189  29.766866  86.065068  36.934294  37.471208  -0.399597  -15.623168  -109.8853  61.867672  20.498093  -18.418352  1.475662  8.056785  8.460584  0.992935  6.064382  6.315413  
0.0  93.25843  0.0  -1.696406  -33.452815  -88.281743  18.482383  -12.441378  1.698896  6.304885  -1.146918  11.644223  9.971019  2.170102  2.358759  3.61011  2.057288  -13.280018  3.918223  6.232222  7.118224  1.667474  0.703618  -0.178858  1.93002  -0.869417  -0.177773  5.283948  -2.360523  -0.555161  5.283948  -2.360523  -0.555161  -24.43035  30.399681  -4.794069  139.290045  44.31346  -150.824105  -13.098133  13.276575  101.275275  78.256451  -19.959658  11.442073  -5.310908  -4.509893  30.313211  86.076776  37.315279  36.767318  0.253971  -16.24089  -110.370262  61.122422  20.697053  -18.978416  1.709318  8.188177  8.509351  1.16535  6.166341  6.348123  
0.0  93.25843  0.0  -2.115192  -32.920411  -88.025592  16.833507  -13.120145  1.216767  6.331335  -0.808651  12.016966  10.502114  2.260049  2.811912  2.217992  1.40067  -13.566435  4.114146  6.534124  7.514136  1.297481  0.713075  -0.249214  1.799951  -0.952247  -0.230388  4.931327  -2.584037  -0.700544  4.931327  -2.584037  -0.700545  -24.552874  30.60979  -4.871163  139.094017  44.496704  -150.532658  -13.04494  12.288138  101.385128  78.120746  -20.104089  11.451813  -5.864176  -4.208094  30.591256  86.930177  37.29735  36.320263  0.781043  -16.804988  -110.93135  60.371981  20.717112  -19.696328  2.01287  8.316012  8.65961  1.388735  6.267022  6.455777  
0.0  93.25843  0.0  -2.144034  -32.779717  -88.138632  15.955497  -13.437557  0.932941  6.87821  -0.472651  13.020038  10.532273  2.258869  2.868697  1.454019  1.099883  -13.580613  4.825691  6.860787  8.024915  1.246149  0.716603  -0.220358  1.785411  -0.961145  -0.232735  4.891786  -2.608334  -0.707056  4.891786  -2.608334  -0.707056  -25.047531  30.638466  -4.987879  138.850089  44.71117  -150.160809  -12.933818  10.984823  101.500168  77.920893  -20.256872  11.256607  -5.79721  -4.136512  31.253132  86.626267  37.88544  35.315502  1.156277  -17.303385  -111.561996  59.550535  20.668224  -20.477552  2.054924  8.341852  8.698798  1.419301  6.28715  6.484384  
